<svg xmlns="http://www.w3.org/2000/svg" xmlns:xlink="http://www.w3.org/1999/xlink" version="1.1" x="0px" y="0px" viewBox="0 0 250 250" enable-background="new 0 0 256 256" xml:space="preserve">
<g><g><g><path fill="currentColor" d="M14.3,34.5c-1.9,0.8-3.8,3.2-4.2,5c-0.1,0.8-0.2,32-0.1,69.4c0.1,67.8,0.1,67.9,1.1,69.2c0.5,0.7,1.5,1.7,2.2,2.2c1.2,1,1.6,1,46.9,1.1c25.1,0,45.6,0.2,45.6,0.3c0,3.6-1.6,20-2.1,21.5c-1.3,4.1-3.6,6.4-10.6,10.6c-6.7,4.1-8.3,5.7-7.3,7.2c0.5,0.8,3,0.8,42,1c45.7,0.1,43.3,0.3,42.3-2.6c-0.4-1.2-1.4-2-9.9-7.2c-4.3-2.6-6.9-5.6-8.1-9.1c-0.5-1.5-2.1-17.9-2.1-21.5c0-0.1,20.5-0.3,45.6-0.3c45.3-0.1,45.7-0.1,46.9-1.1c0.7-0.5,1.7-1.5,2.2-2.2c1-1.2,1-1.3,1-70.4c0-69.1,0-69.2-1-70.4c-0.5-0.7-1.5-1.7-2.2-2.2l-1.2-1L128.6,34C35.4,33.9,15.5,34,14.3,34.5z M235.2,105.8v60.9H128.1H21v-60.9V44.9h107.1h107.1L235.2,105.8L235.2,105.8z"/><path fill="currentColor" d="M98.5,68c-1.1,1.1-1.2,1.8-0.2,3.1c0.6,1,1.1,1,6,1c3,0,5.3,0.2,5.2,0.4c0,0.2-4.4,5.3-9.6,11.2c-5.2,5.9-10,11.4-10.6,12l-1.1,1.3l-10.8-8.6c-6-4.8-11.2-8.6-11.7-8.6s-2.5,1.5-4.5,3.4c-1.9,1.8-8.5,8-14.5,13.7c-11.4,10.7-12,11.4-10.2,13.1c1.8,1.7,2.6,1.1,14.8-10.4c6.5-6.1,12.5-11.7,13.2-12.4L66,86l10.6,8.5c7.8,6.2,10.9,8.5,11.9,8.5c1.1,0,3-1.9,12.9-13.2l11.7-13.2l0.2,5c0.2,4.2,0.4,5.1,1.1,5.6c1.2,0.8,1.7,0.8,3-0.1c1-0.7,1-0.9,1-9.6c0-8-0.1-9-0.8-9.6c-0.7-0.7-2.1-0.8-9.5-0.8C100.1,67.1,99.4,67.1,98.5,68z"/><path fill="currentColor" d="M182.5,85.7c0,10.3,0.1,18.7,0.2,18.7c0.6,0,28.8-21.4,28.8-21.9c0-0.8-6.1-6.6-8.9-8.5c-4.9-3.4-11.9-6-17.7-6.7l-2.4-0.3L182.5,85.7L182.5,85.7z"/><path fill="currentColor" d="M173.4,70.5c-22.5,4.1-36.2,27.2-28.9,48.6c3.2,9.6,9.9,17.1,19,21.6c7.5,3.7,15.7,4.7,23.9,3c3.8-0.8,10.4-3.3,10.4-4c0-0.2-4.6-7.4-10.2-16L177.5,108V88.9c0-10.5-0.1-19.1-0.3-19C176.9,69.9,175.2,70.2,173.4,70.5z"/><path fill="currentColor" d="M199.7,98.2c-8.2,6.2-14.9,11.4-14.9,11.6c0,0.3,11.3,18.1,16.9,26.6l2.4,3.6l4.3-4.3c10.5-10.7,14.4-25.4,10.3-39.3c-1-3.4-3.6-9.6-4.1-9.5C214.7,86.9,207.9,92,199.7,98.2z"/><path fill="currentColor" d="M103.9,98.8c-0.7,0.8-0.8,3-0.8,22.6c0,19.1,0.1,21.8,0.7,22.4c0.6,0.6,1.9,0.7,6.8,0.7c5.4,0,6.2-0.1,6.9-0.8c0.7-0.8,0.8-3,0.8-22.6V99.4l-1-0.7c-0.8-0.6-2.4-0.7-6.9-0.7C105.5,98,104.6,98.1,103.9,98.8z"/><path fill="currentColor" d="M59.2,106.3c-0.8,0.4-0.8,1.8-0.8,18.9c0,17.8,0,18.5,0.9,18.9c0.5,0.2,3.6,0.5,6.9,0.5c5.2,0,6-0.1,6.7-0.8c0.7-0.8,0.8-2.7,0.8-18.6c0-16.6,0-17.8-0.8-18.5c-0.7-0.6-1.9-0.8-6.8-0.8C62.7,105.8,59.6,106.1,59.2,106.3z"/><path fill="currentColor" d="M81.3,114.5c-0.7,0.7-0.8,2.4-0.8,14.7c0,12.8,0,13.9,0.8,14.6c0.7,0.6,1.9,0.8,6.9,0.8c8.6,0,7.9,1.4,7.9-15.4c0-11.5-0.1-13.7-0.7-14.5c-0.6-1-1-1-7.1-1C82.8,113.7,82,113.8,81.3,114.5z"/><path fill="currentColor" d="M36.5,122.3c-0.6,0.6-0.7,2.3-0.7,10.8c0,9.1,0.1,10.1,0.8,10.8c1.2,1.1,12.3,1.2,13.8,0.1c0.8-0.6,0.9-1.4,1-10.4c0.2-12.9,0.7-12-7.8-12C38.4,121.5,37.1,121.7,36.5,122.3z"/></g></g></g>
</svg>