<svg version="1.1"
  xmlns="http://www.w3.org/2000/svg"
  xmlns:xlink="http://www.w3.org/1999/xlink" x="0px" y="0px" viewBox="0 0 256 256" enable-background="new 0 0 256 256" xml:space="preserve">
  <g>
    <g>
      <path fill="currentColor" d="M128.1,10c60.9,22.9,97.8,95.9,66.2,155L117,87.4l29.5-29.6L128,39.4c-10.2,10-26.3,12.1-37.3,7.7l-58.7,58.8L65.3,139l22.2-22.1l77.3,77.5c-37.8,20.8-90.2,14.2-128.8-26l-18.7,18.7c5.6,7.8,10.3,14.8,16.1,20.7c-0.5,0.6-2.1,1.9-2.1,2c-1-0.2-2.1-0.5-3.2-0.5c-10,0-18,8.7-18,18.6s8.1,18.1,18.1,18.1c10,0,18.5-8.2,18.5-18.2c0-1.2-0.3-2.2-0.5-3.3l2.9-2.8c44.5,30,93.1,33.7,145.6,2.4l21.6,21.7l29.6-29.2l-21.8-22C286.6,100.3,203.2,7.7,128.1,10L128.1,10z"/>
    </g>
  </g>
</svg>