<svg version="1.1"
  xmlns="http://www.w3.org/2000/svg"
  xmlns:xlink="http://www.w3.org/1999/xlink" x="0px" y="0px" viewBox="0 0 256 256" enable-background="new 0 0 256 256" xml:space="preserve">
  <g>
    <g>
      <path fill="currentColor" d="M236.7,82.1c-5.9-14.1-14.4-26.7-25.3-37.5c-10.8-10.8-23.5-19.3-37.5-25.3c-14.6-6.2-30-9.3-45.9-9.3s-31.4,3.1-45.9,9.3C68,25.2,55.4,33.7,44.6,44.6C33.7,55.4,25.2,68,19.3,82.1c-6.2,14.6-9.3,30-9.3,45.9s3.1,31.4,9.3,45.9c5.9,14.1,14.4,26.7,25.3,37.5c10.8,10.8,23.5,19.3,37.5,25.3c14.6,6.2,30,9.3,45.9,9.3s31.4-3.1,45.9-9.3c14.1-5.9,26.7-14.4,37.5-25.3c10.8-10.8,19.3-23.5,25.3-37.5c6.2-14.6,9.3-30,9.3-45.9S242.9,96.6,236.7,82.1z M128,237.9c-60.6,0-109.9-49.3-109.9-109.9C18.1,67.4,67.4,18.1,128,18.1c60.6,0,109.9,49.3,109.9,109.9C237.9,188.6,188.6,237.9,128,237.9z"/>
      <path fill="currentColor" d="M213.8,151.7c-1.8-2.3-5.1-5-10.6-5c-2.8,0-5.9,0.7-9.3,2.1c-0.3-0.5-0.6-1-1-1.5c-2.1-2.6-5.5-4.1-9.4-4.1c-4.5,0-8.6,1.1-11.9,3.3c-2.6-2.3-5.4-3.4-8.6-3.4c-4.1,0-8.7,1.8-15.4,6c-4.3,2.7-7.7,4.7-10.2,6.1c-0.3,0.2-1.6,1-4.4,2.8l-1,0.6c-1.1,0.7-2.2,1.4-2.9,1.9c-4.1-1.4-7.4-3.1-8.6-3.8l0,0l0,0c-2.7-2-11.8-8.6-15-10.6l-1.2-0.7c-5.3-3.3-10.8-6.8-18.6-6.8c-4,0-8.4,0.9-13.2,2.8c-9.3,3.7-29.2,12.9-29.4,13l-3.7,1.7l22,49l13.3-8.7c2.3-1.4,3.6-2.1,5.1-2.1c1.4,0,3.1,0.6,5.6,1.9l7,3.6c7.8,4,20.7,10.7,24.6,12.6c5.2,2.5,9.9,3.7,14.3,3.7c7.1,0,12.1-3.2,16.1-5.7c0.8-0.5,1.8-1.1,2.7-1.7c6.3-3.6,51.5-33.5,56.2-36.9c5.8-4.1,8.8-7.9,9.4-12C216.5,156.9,215.7,154.2,213.8,151.7z M65,192.9l-14.8-32.9c4.8-2.2,18.3-8.4,25.3-11.1c3.9-1.5,7.2-2.3,10.2-2.3c5.4,0,9.3,2.5,14.3,5.6l1.2,0.7c2.8,1.7,11.2,7.8,13.9,9.8c0.6,0.4,1,0.7,1,0.7l0.1,0c1.3,0.7,12.8,7.2,24.7,7.2c7.4,0,12.4,0.7,14.7,2c1.5,0.9,1.5,1.8,1.5,3c0,0.9-3.6,2.2-7.2,2.4h-27.6c-8.4,0-20.9-5.1-21-5.1l-1.3-0.6l-3.1,7.6l1.3,0.5c1.4,0.6,14.3,5.7,24.1,5.7H150h0.1c7.3-0.4,15.1-3.3,15.1-10.5c0-11.6-11.7-13.2-24.3-13.2c0.3-0.2,0.4-0.3,0.5-0.3c2.6-1.4,6.1-3.6,10.5-6.3c5.3-3.3,8.7-4.7,11-4.7c1.9,0,3.2,0.9,5.1,3.3l2.8,3.8l3.3-3.3c2.3-2.4,5.5-3.6,9.5-3.6c1.3,0,2.5,0.4,3,1.1c0.1,0.1,0.5,0.6,0.2,1.7l-2,9.2l8.1-4.8c4-2.4,7.6-3.7,10.3-3.7c1.9,0,3.3,0.6,4.2,1.8c0.8,1,0.7,1.5,0.7,1.8c-0.1,0.7-0.9,2.9-6.1,6.6c-4.8,3.3-49.4,32.9-55.6,36.5c-1,0.6-1.9,1.2-3,1.8c-3.9,2.4-7.2,4.5-11.8,4.5c-3.1,0-6.7-1-10.8-3c-3.6-1.8-15.3-7.8-23.9-12.2l-7.5-3.9c-3.7-1.9-6.7-2.8-9.4-2.8c-3.4,0-6.3,1.4-9.5,3.4L65,192.9z"/>
      <path fill="currentColor" d="M100.7,127.1L100.7,127.1c7.3,6,14.9,12.2,20.5,18.9c1.8,2.1,4.4,3.3,7.1,3.3h0.3c2.7,0,5.3-1.2,7.1-3.3c5.7-6.7,13.2-12.9,20.5-18.9l0.1-0.1c16.6-13.6,33.7-27.6,33.7-50.4c0-21.3-14.9-36.1-36.2-36.1c-10.5,0-19.6,6.1-25.5,11.6c-5.9-5.5-14.9-11.6-25.5-11.6c-21.3,0-36.2,14.9-36.2,36.1C66.8,99.3,84,113.4,100.7,127.1z"/>
    </g>
  </g>
</svg>