<svg version="1.1" xmlns="http://www.w3.org/2000/svg" xmlns:xlink="http://www.w3.org/1999/xlink" x="0px" y="0px" viewBox="0 0 256 256" enable-background="new 0 0 256 256" xml:space="preserve">
<g><g><g><path fill="currentColor" d="M100.6,33.2c-6,2.2-10.1,5.9-12.7,11.5c-1.3,2.8-1.5,4.2-1.7,10.7L86,62.8h-3.7c-3.6,0-3.7-0.1-3.7-1.5c0-2.4-1.5-4.7-3.7-5.8c-2.6-1.2-17.5-1.3-20.5-0.1c-2.5,1-3.9,3-3.9,5.4v1.8l-11.2,0.3c-9.8,0.3-11.8,0.5-14.7,1.6c-4.3,1.7-8.5,5-10.9,8.8C10.2,78.4,10,80,10,98v16.2l1.6,0.6c0.9,0.3,16.6,6,34.8,12.6l33.3,12.1H128h48.2l33.3-12c18.3-6.6,34-12.3,34.9-12.6l1.6-0.6V98c0-12.6-0.2-16.9-0.9-19.1c-1.9-6.3-7.1-11.8-13.6-14.3c-3-1.1-4.8-1.3-14.6-1.6l-11.3-0.2v-1.9c0-2.4-1.4-4.4-3.9-5.4c-3-1.2-17.9-1.1-20.5,0.1c-2.2,1.1-3.7,3.4-3.7,5.8c0,1.4-0.1,1.5-3.7,1.5H170l-0.2-7.5c-0.2-7-0.4-7.7-2.2-11.4c-2.1-4.3-5.6-7.7-10-10c-2.8-1.3-2.8-1.3-28.8-1.5C108.4,32.4,102.3,32.5,100.6,33.2z M153.8,46.2c3.6,2.9,4.5,5,4.7,11.2l0.2,5.4H128H97.2v-4c0-7.2,2-11.2,6.7-13.8c1.5-0.8,4.6-0.9,24.7-0.8l22.9,0.1L153.8,46.2z"/><path fill="currentColor" d="M10.1,167.5l0.2,39.6l1.7,3.6c2,4.4,6.6,9,11.3,11.2l3.4,1.6H128h101.3l3.4-1.6c4.4-2,9.1-6.6,11.3-10.8l1.7-3.4l0.2-39.9l0.2-40l-6.3,2.3c-3.5,1.3-18.7,6.8-34,12.3l-27.6,10H128H77.9l-27.6-10c-15.2-5.5-30.4-11-34-12.3l-6.3-2.3L10.1,167.5z"/></g></g></g>
</svg>