<svg fill="currentColor" version="1.0"
  xmlns="http://www.w3.org/2000/svg" width="128.000000pt" height="128.000000pt" viewBox="0 0 128.000000 128.000000" preserveAspectRatio="xMidYMid meet">

  <g transform="translate(0.000000,128.000000) scale(0.100000,-0.100000)" fill="#currentColor">
    <path d="M539 1240 c-90 -46 -174 -69 -287 -80 -72 -6 -88 -11 -110 -34 l-27
-27 1 -237 c1 -267 11 -326 79 -464 l35 -72 -30 -31 c-26 -26 -33 -28 -50 -17
-17 10 -21 10 -27 -4 -4 -11 17 -38 68 -90 80 -80 105 -92 94 -46 -4 21 -1 33
14 46 20 18 22 17 82 -37 91 -81 202 -142 259 -142 99 0 302 156 398 305 102
158 135 307 130 595 l-3 195 -27 26 c-22 23 -38 28 -110 34 -115 11 -168 26
-277 76 -51 24 -103 44 -115 44 -11 -1 -55 -18 -97 -40z m194 -40 c99 -47 176
-69 281 -77 124 -10 119 2 113 -277 -5 -263 -12 -298 -82 -441 -49 -97 -110
-176 -192 -246 -64 -53 -179 -119 -211 -119 -47 0 -166 72 -250 152 l-43 41
37 39 38 38 41 -40 c22 -22 46 -40 53 -40 15 0 16 22 0 38 -9 9 34 59 196 222
l209 210 -6 42 c-4 28 0 52 10 71 8 17 13 42 10 57 -5 23 4 36 59 91 35 35 64
69 64 76 0 29 -38 10 -97 -49 -57 -57 -66 -62 -101 -59 -25 1 -43 -3 -51 -13
-10 -12 -24 -14 -58 -9 l-45 6 -208 -208 c-206 -206 -209 -209 -229 -191 -19
17 -21 18 -27 2 -5 -12 6 -30 35 -60 l41 -42 -30 -29 c-36 -35 -35 -36 -79 70
-49 117 -61 201 -61 425 0 241 -4 234 116 243 105 8 183 30 274 76 41 21 83
38 93 39 10 1 55 -16 100 -38z m155 -322 c16 -16 15 -43 -1 -57 -10 -8 -20 -4
-41 18 -16 16 -25 34 -22 40 9 15 49 14 64 -1z m-71 -70 c35 -34 63 -69 63
-77 0 -8 -12 -28 -27 -43 l-27 -28 -28 27 c-22 21 -31 24 -40 15 -9 -9 -6 -18
15 -40 l27 -28 -33 -32 c-33 -32 -33 -32 -52 -12 -18 20 -55 28 -55 11 0 -4
10 -20 21 -35 l21 -27 -28 -30 -28 -29 -21 20 c-23 22 -55 27 -55 8 0 -6 10
-22 22 -35 l22 -24 -32 -31 -31 -32 -24 22 c-44 41 -66 19 -25 -25 l22 -24
-25 -24 -24 -25 -80 80 -80 80 200 200 c125 126 207 200 220 200 11 0 48 -28
82 -62z m-499 -545 c-76 -76 -77 -77 -98 -58 -11 10 -20 23 -20 29 0 6 33 43
72 83 l73 73 25 -25 25 -25 -77 -77z"/>
  </g>
</svg>
