<svg width="35" height="35" viewBox="0 0 35 35" fill="none" xmlns="http://www.w3.org/2000/svg">
<g clip-path="url(#clip0_4425_545)">
<rect width="34.58" height="34.58" rx="4"/>
<path d="M17.1176 14.2504C23.4496 10.2875 33.0467 6.42671 49.7687 2.88184C39.0826 5.21661 16.0294 13.1728 9.30526 26.3194H4.9949C5.26382 25.9464 5.54077 25.5322 5.84194 25.0817C7.30416 22.8948 9.33732 19.8539 13.7944 16.5284L7.52708 9.88616H12.7534L17.1176 14.2504Z" fill="white"/>
<path d="M17.1176 14.2504C23.4496 10.2875 33.0467 6.42671 49.7687 2.88184C39.0826 5.21661 16.0294 13.1728 9.30526 26.3194H4.9949C5.26382 25.9464 5.54077 25.5322 5.84194 25.0817C7.30416 22.8948 9.33732 19.8539 13.7944 16.5284L7.52708 9.88616H12.7534L17.1176 14.2504Z" fill="url(#paint0_linear_4425_545)"/>
<path d="M13.6694 26.3195C18.5832 16.0609 33.6407 8.57524 40.5552 6.11475C21.8914 11.8044 12.6277 21.9553 10.3288 26.3195H13.6694Z" fill="#DFDFDF"/>
<path d="M23.0982 26.2657H28.4862L21.859 19.423C24.6068 15.7053 30.2103 11.7183 30.2103 11.7183C23.0982 15.7053 19.9912 19.1357 18.4107 21.1472L23.0982 26.2657Z" fill="white"/>
<path d="M23.0982 26.2657H28.4862L21.859 19.423C24.6068 15.7053 30.2103 11.7183 30.2103 11.7183C23.0982 15.7053 19.9912 19.1357 18.4107 21.1472L23.0982 26.2657Z" fill="url(#paint1_linear_4425_545)"/>
<path d="M23.0982 26.2657H28.4862L21.859 19.423C24.6068 15.7053 30.2103 11.7183 30.2103 11.7183C23.0982 15.7053 19.9912 19.1357 18.4107 21.1472L23.0982 26.2657Z" fill="url(#paint2_linear_4425_545)"/>
</g>
<defs>
<linearGradient id="paint0_linear_4425_545" x1="-3.6652" y1="21.3145" x2="14.0176" y2="-9.27472" gradientUnits="userSpaceOnUse">
<stop stop-color="#1A5E83"/>
<stop offset="1" stop-color="#4296C4"/>
</linearGradient>
<linearGradient id="paint1_linear_4425_545" x1="16.1284" y1="23.1592" x2="28.214" y2="14.2825" gradientUnits="userSpaceOnUse">
<stop stop-color="#1A5E83"/>
<stop offset="1" stop-color="#4296C4"/>
</linearGradient>
<linearGradient id="paint2_linear_4425_545" x1="16.1284" y1="23.1592" x2="28.214" y2="14.2825" gradientUnits="userSpaceOnUse">
<stop stop-color="#1A5E83"/>
<stop offset="1" stop-color="#4296C4"/>
</linearGradient>
<clipPath id="clip0_4425_545">
<rect width="34.58" height="34.58" rx="4" fill="white"/>
</clipPath>
</defs>
</svg>
