<svg width="242" height="90" viewBox="0 0 242 90" fill="none" xmlns="http://www.w3.org/2000/svg">
<path d="M46.4443 43.555C70.7034 28.3723 107.472 13.5811 171.537 0C130.596 8.94495 42.2752 39.4266 16.5138 89.7936H0C1.03027 88.3645 2.09132 86.7775 3.24516 85.0518C8.84718 76.6732 16.6366 65.023 33.7124 52.2826L9.70123 26.8349H29.7242L46.4443 43.555Z" fill="white"/>
<path d="M33.2335 89.7935C52.0592 50.4908 109.747 21.8119 136.238 12.3853C64.7335 34.1834 29.2427 73.0733 20.4353 89.7935H33.2335Z" fill="url(#paint0_linear_4339_9172)"/>
<path d="M69.3572 89.5874H89.9994L64.6094 63.3719C75.137 49.1287 96.6049 33.8535 96.6049 33.8535C69.3572 49.1287 57.4535 62.271 51.3984 69.9774L69.3572 89.5874Z" fill="white"/>
<path d="M100.734 89.9998V44.5869H112.279V62.431H130.368V44.5869H141.881V89.9998H130.368V71.715H112.279V89.9998H100.734Z" fill="white"/>
<path d="M148.802 89.9998V44.5869H168.464C179.443 44.5869 185.64 50.0314 185.64 59.6616V59.7245C185.64 65.5467 182.62 70.5821 177.901 72.6277L186.993 89.9998H174.032L166.23 74.3586H160.348V89.9998H148.802ZM160.348 65.9873H167.174C171.264 65.9873 173.875 63.5325 173.875 59.6931V59.6301C173.875 55.8221 171.169 53.3044 167.111 53.3044H160.348V65.9873Z" fill="white"/>
<path d="M191.46 89.9998V44.5869H204.798L216.186 74.2642H216.375L227.763 44.5869H241.101V89.9998H230.94V61.6128H230.688L219.584 89.9998H212.977L201.872 61.6128H201.621V89.9998H191.46Z" fill="white"/>
<defs>
<linearGradient id="paint0_linear_4339_9172" x1="-1.96315" y1="73.2637" x2="62.4409" y2="-13.9834" gradientUnits="userSpaceOnUse">
<stop stop-color="#1A5E83"/>
<stop offset="1" stop-color="#4296C4"/>
</linearGradient>
</defs>
</svg>
